<svg width="79" height="56" viewBox="0 0 79 56" fill="none" xmlns="http://www.w3.org/2000/svg">
<path fill-rule="evenodd" clip-rule="evenodd" d="M67.8148 25.7744C62.6762 25.7744 57.1357 25.7744 57.1357 25.7744L60.0466 12.3049C60.0466 12.3049 67.5643 12.3049 70.3042 12.3049C76.9586 12.3049 78.5345 15.5769 78.5345 18.1666C78.5345 21.83 76.1655 25.7744 67.8148 25.7744ZM74.5598 37.3568C74.5598 41.0199 72.1908 44.9646 63.8401 44.9646C58.7015 44.9646 53.161 44.9646 53.161 44.9646L56.0716 31.4854C56.0716 31.4854 63.5899 31.4854 66.3196 31.4854C72.9739 31.4854 74.5598 34.7772 74.5598 37.3568ZM42.9531 13.7203C37.8142 13.7203 32.2839 13.7203 32.2839 13.7203L35.1948 0.250793C35.1948 0.250793 42.7026 0.250793 45.4326 0.250793C52.0969 0.250793 53.6827 3.52278 53.6827 6.11222C53.683 9.77565 51.3038 13.7203 42.9531 13.7203ZM49.9689 26.3866C49.9689 30.05 47.6002 33.9944 39.2492 33.9944C34.1153 33.9944 28.5803 33.9944 28.5803 33.9944L31.486 20.535C31.486 20.535 39.0037 20.535 41.7386 20.535C48.3933 20.535 49.9689 23.7971 49.9689 26.3866ZM46.0047 47.5039C46.0047 51.1773 43.6357 55.1117 35.3048 55.1117C30.1558 55.1117 24.6104 55.1117 24.6104 55.1117L27.5209 41.6324C27.5209 41.6324 35.039 41.6324 37.7788 41.6324C44.4285 41.6324 46.0047 44.9145 46.0047 47.5039ZM14.378 13.7203C9.2438 13.7203 3.71375 13.7203 3.71375 13.7203L6.60946 0.250793C6.60946 0.250793 14.1275 0.250793 16.8674 0.250793C23.522 0.250793 25.1128 3.52278 25.1128 6.11222C25.1125 9.77565 22.7287 13.7203 14.378 13.7203ZM21.4089 26.3866C21.4089 30.05 19.0251 33.9944 10.6944 33.9944C5.54046 33.9944 0 33.9944 0 33.9944L2.91628 20.535C2.91628 20.535 10.4388 20.535 13.1638 20.535C19.8231 20.535 21.4089 23.7971 21.4089 26.3866Z" fill="white"/>
</svg>
