<svg width="83" height="104" viewBox="0 0 83 104" fill="none" xmlns="http://www.w3.org/2000/svg">
<path fill-rule="evenodd" clip-rule="evenodd" d="M30.3022 2.2692e-05C28.5362 0.000198321 27.1047 1.42413 27.1045 3.18068V15.0286C27.1047 16.7852 28.5362 18.2091 30.3022 18.2093H32.1408V22.4237C24.7785 24.0706 17.7957 27.747 12.0756 33.4367C-4.02515 49.4519 -4.02524 75.5082 12.0756 91.5235C28.1764 107.539 54.3718 107.539 70.4725 91.5235C86.5733 75.5082 86.5733 49.4519 70.4725 33.4367C64.7524 27.747 57.7696 24.0706 50.4073 22.4237V18.2093H52.246C54.0119 18.2091 55.4435 16.7852 55.4436 15.0286V3.18068C55.4477 3.08794 55.4477 2.99506 55.4436 2.90231C55.298 1.25529 53.9082 -0.00616863 52.246 2.2692e-05H30.3022ZM33.4998 6.36136H49.0483V11.848H33.4998V6.36136ZM38.5361 18.2093H44.0121V21.5092C42.1917 21.3896 40.3565 21.3896 38.5361 21.5092V18.2093ZM41.2941 27.7513C50.2169 27.7513 59.1274 31.1372 65.9559 37.9294C79.6127 51.5137 79.6127 73.4464 65.9559 87.0307C52.2991 100.615 30.2491 100.615 16.5923 87.0307C2.93538 73.4464 2.93547 51.5136 16.5923 37.9294C23.4207 31.1372 32.3713 27.7513 41.2941 27.7513ZM58.921 41.3088C58.2044 41.4064 57.5421 41.7427 57.0424 42.263L45.5309 53.7133C44.2399 53.0846 42.8165 52.7194 41.294 52.7194C35.9258 52.7194 31.5013 57.1204 31.5013 62.4601C31.5013 67.7998 35.9258 72.201 41.294 72.201C46.6622 72.201 51.0468 67.7998 51.0468 62.4601C51.0468 60.939 50.7251 59.4946 50.0876 58.2061L61.5991 46.7557C62.6066 45.7986 62.8752 44.3028 62.2632 43.0579C61.6511 41.8129 60.2992 41.1054 58.921 41.3088ZM41.2941 59.0807C43.206 59.0807 44.6516 60.5584 44.6516 62.4601C44.6516 64.3619 43.206 65.8397 41.2941 65.8397C39.3821 65.8397 37.8966 64.3619 37.8966 62.4601C37.8966 60.5584 39.3821 59.0807 41.2941 59.0807Z" fill="#0E65A4"/>
</svg>
